<svg xmlns="http://www.w3.org/2000/svg"  viewBox="0 0 64 64" width="256px" height="256px"><linearGradient id="Tz2XUOsfxgFw8DN_AXgE5a" x1="36" x2="36" y1="39.833" y2="44.179" gradientUnits="userSpaceOnUse" spreadMethod="reflect"><stop offset="0" stop-color="#6dc7ff"/><stop offset="1" stop-color="#e6abff"/></linearGradient><path fill="url(#Tz2XUOsfxgFw8DN_AXgE5a)" d="M36 40A2 2 0 1 0 36 44A2 2 0 1 0 36 40Z"/><linearGradient id="Tz2XUOsfxgFw8DN_AXgE5b" x1="42" x2="42" y1="39.833" y2="44.179" gradientUnits="userSpaceOnUse" spreadMethod="reflect"><stop offset="0" stop-color="#6dc7ff"/><stop offset="1" stop-color="#e6abff"/></linearGradient><path fill="url(#Tz2XUOsfxgFw8DN_AXgE5b)" d="M42 40A2 2 0 1 0 42 44A2 2 0 1 0 42 40Z"/><linearGradient id="Tz2XUOsfxgFw8DN_AXgE5c" x1="48" x2="48" y1="39.833" y2="44.179" gradientUnits="userSpaceOnUse" spreadMethod="reflect"><stop offset="0" stop-color="#6dc7ff"/><stop offset="1" stop-color="#e6abff"/></linearGradient><path fill="url(#Tz2XUOsfxgFw8DN_AXgE5c)" d="M48 40A2 2 0 1 0 48 44A2 2 0 1 0 48 40Z"/><linearGradient id="Tz2XUOsfxgFw8DN_AXgE5d" x1="30" x2="30" y1="39.833" y2="44.179" gradientUnits="userSpaceOnUse" spreadMethod="reflect"><stop offset="0" stop-color="#6dc7ff"/><stop offset="1" stop-color="#e6abff"/></linearGradient><path fill="url(#Tz2XUOsfxgFw8DN_AXgE5d)" d="M30 40A2 2 0 1 0 30 44A2 2 0 1 0 30 40Z"/><linearGradient id="Tz2XUOsfxgFw8DN_AXgE5e" x1="32" x2="32" y1="5.333" y2="58.804" gradientUnits="userSpaceOnUse" spreadMethod="reflect"><stop offset="0" stop-color="#1a6dff"/><stop offset="1" stop-color="#c822ff"/></linearGradient><path fill="url(#Tz2XUOsfxgFw8DN_AXgE5e)" d="M52.021,34H47v-3c0-2.757-2.243-5-5-5h-1v-2c0-1.103-0.897-2-2-2h-2v-7c0-4.963-4.037-9-9-9 s-9,4.037-9,9v7h-2c-1.103,0-2,0.897-2,2v2h-1c-2.757,0-5,2.243-5,5v22c0,2.757,2.243,5,5,5h28c2.757,0,5-2.243,5-5v-3h5.021 C53.663,50,55,48.663,55,47.021V36.979C55,35.337,53.663,34,52.021,34z M39,26h-6v-2h6V26z M21,15c0-3.859,3.141-7,7-7s7,3.141,7,7 v7h-2c-1.103,0-2,0.897-2,2v2h-6v-2c0-1.103-0.897-2-2-2h-2V15z M17,24h6v2h-6V24z M45,53c0,1.654-1.346,3-3,3h-7 c0-1.103-0.897-2-2-2H23c-1.103,0-2,0.897-2,2h-7c-1.654,0-3-1.346-3-3v-4h4v-2h-4v-2h4v-2h-4v-2h4v-2h-4v-2h4v-2h-4v-4 c0-1.654,1.346-3,3-3h28c1.654,0,3,1.346,3,3v3H25.979C24.337,34,23,35.337,23,36.979v10.041C23,48.663,24.337,50,25.979,50H45V53z M53,47.021C53,47.561,52.561,48,52.021,48H25.979C25.439,48,25,47.561,25,47.021V36.979C25,36.439,25.439,36,25.979,36h26.041 C52.561,36,53,36.439,53,36.979V47.021z"/></svg>